<?xml version="1.0" encoding="UTF-8" standalone="no"?>
<!-- Created with Inkscape (http://www.inkscape.org/) -->

<svg
   xmlns:dc="http://purl.org/dc/elements/1.1/"
   xmlns:cc="http://creativecommons.org/ns#"
   xmlns:rdf="http://www.w3.org/1999/02/22-rdf-syntax-ns#"
   xmlns:svg="http://www.w3.org/2000/svg"
   xmlns="http://www.w3.org/2000/svg"
   xmlns:sodipodi="http://sodipodi.sourceforge.net/DTD/sodipodi-0.dtd"
   xmlns:inkscape="http://www.inkscape.org/namespaces/inkscape"
   id="svg4236"
   version="1.1"
   inkscape:version="0.91 r13725"
   xml:space="preserve"
   width="456.04749"
   height="191.33875"
   viewBox="0 0 456.04748 191.33875"
   sodipodi:docname="logo-white.svg"><metadata
     id="metadata4242"><rdf:RDF><cc:Work
         rdf:about=""><dc:format>image/svg+xml</dc:format><dc:type
           rdf:resource="http://purl.org/dc/dcmitype/StillImage" /><dc:title></dc:title></cc:Work></rdf:RDF></metadata><defs
     id="defs4240" /><sodipodi:namedview
     pagecolor="#ffffff"
     bordercolor="#666666"
     borderopacity="1"
     objecttolerance="10"
     gridtolerance="10"
     guidetolerance="10"
     inkscape:pageopacity="0"
     inkscape:pageshadow="2"
     inkscape:window-width="1918"
     inkscape:window-height="1078"
     id="namedview4238"
     showgrid="false"
     fit-margin-top="0"
     fit-margin-left="0"
     fit-margin-right="0"
     fit-margin-bottom="0"
     inkscape:zoom="2.2079691"
     inkscape:cx="253.37384"
     inkscape:cy="88.367082"
     inkscape:window-x="1366"
     inkscape:window-y="0"
     inkscape:window-maximized="0"
     inkscape:current-layer="g4244" /><g
     id="g4244"
     inkscape:groupmode="layer"
     inkscape:label="ink_ext_XXXXXX"
     transform="matrix(1.25,0,0,-1.25,-58.451172,239.34667)"><g
       id="g4246"
       transform="matrix(0.1,0,0,0.1,-87.320062,38.406334)"
       style="fill:#ffffff;fill-opacity:1"><path
         d="m 3372.41,0.660156 -15.87,0 0,740.378844 16.93,0 306.72,-453.75 307.79,453.75 16.92,0 0,-740.378844 -15.87,0 0,716.050844 -301.43,-448.461 -13.75,0 -301.44,448.461 0,-716.050844"
         style="fill:#ffffff;fill-opacity:1;fill-rule:nonzero;stroke:none"
         id="path4248"
         inkscape:connector-curvature="0" /><path
         d="m 4096.7,379.309 368.07,360.671 21.15,0 -374.42,-368.07 419.89,-371.249844 -24.32,0 -410.37,361.730844 0,16.918 z m -24.33,360.671 0,-739.319844 -15.87,0 0,739.319844 15.87,0"
         style="fill:#ffffff;fill-opacity:1;fill-rule:nonzero;stroke:none"
         id="path4250"
         inkscape:connector-curvature="0" /><path
         d="m 4595.73,16.5195 393.46,0 0,-15.859344 -410.38,0 0,739.319844 408.27,0 0,-15.871 -391.35,0 0,-344.8 382.88,0 0,-16.918 -382.88,0 0,-345.8715"
         style="fill:#ffffff;fill-opacity:1;fill-rule:nonzero;stroke:none"
         id="path4252"
         inkscape:connector-curvature="0" /><path
         d="m 2117.2,789.672 -121.44,0 0,328.778 -185.52,291.67 -75.59,120.59 141.98,0 179.94,-282.4 183.14,282.4 141.44,0 -263.77,-413.29 -0.18,-327.748"
         style="fill:#ffffff;fill-opacity:1;fill-rule:nonzero;stroke:none"
         id="path4254"
         inkscape:connector-curvature="0" /><path
         d="m 3596.46,789.672 -120.6,0 0,620.448 -196.85,0 0,120.59 515.33,0 0,-120.59 -197.88,0 0,-620.448"
         style="fill:#ffffff;fill-opacity:1;fill-rule:nonzero;stroke:none"
         id="path4256"
         inkscape:connector-curvature="0" /><path
         d="m 3100.87,0 -120.59,0 0,620.449 -196.86,0 0,120.59 515.34,0 0,-120.59 -197.89,0 0,-620.449"
         style="fill:#ffffff;fill-opacity:1;fill-rule:nonzero;stroke:none"
         id="path4258"
         inkscape:connector-curvature="0" /><path
         d="m 4309.87,789.672 -121.61,0 0,310.218 -219.53,0 0,-310.218 -120.6,0 0,741.038 120.6,0 0,-309.2 219.53,0 0,309.2 121.61,0 0,-741.038"
         style="fill:#ffffff;fill-opacity:1;fill-rule:nonzero;stroke:none"
         id="path4260"
         inkscape:connector-curvature="0" /><path
         d="m 1462.42,0 -121.61,0 0,741.039 417.41,0 0,-120.59 -295.8,0 0,-188.609 246.32,0 0,-121.621 -246.32,0 0,-310.219"
         style="fill:#ffffff;fill-opacity:1;fill-rule:nonzero;stroke:none"
         id="path4262"
         inkscape:connector-curvature="0" /><path
         d="m 2263.62,0 -447.31,0 0,741.039 447.31,0 0,-117.598 -325.69,-2.992 0,-188.609 246.32,0 0,-121.621 -246.32,0 0,-188.598 325.69,0 0,-121.621"
         style="fill:#ffffff;fill-opacity:1;fill-rule:nonzero;stroke:none"
         id="path4264"
         inkscape:connector-curvature="0" /><path
         d="m 1461.39,1327.59 c 0,-146.17 326.72,-53.33 326.72,-316.03 0,-124.439 -108.22,-221.232 -230.86,-221.232 -119.57,0 -216.44,90.871 -216.44,201.473 l 120.58,0 c 0,-48.379 41.23,-85.922 95.86,-85.922 60.81,0 110.28,47.402 110.28,105.681 0,159.99 -326.72,65.18 -326.72,316.03 0,115.55 103.07,202.45 216.44,202.45 119.55,0 217.47,-87.89 217.47,-202.45 l -121.63,0 c 0,49.37 -41.22,85.92 -95.84,85.92 -54.63,0 -95.86,-36.55 -95.86,-85.92"
         style="fill:#ffffff;fill-opacity:1;fill-rule:nonzero;stroke:none"
         id="path4266"
         inkscape:connector-curvature="0" /><path
         d="m 2428.64,537.922 c 0,-146.172 326.72,-53.332 326.72,-316.031 0,-124.4418 -108.22,-221.230844 -230.86,-221.230844 -119.56,0 -216.44,90.871144 -216.44,201.480844 l 120.58,0 c 0,-48.391 41.23,-85.93 95.86,-85.93 60.82,0 110.28,47.41 110.28,105.68 0,159.988 -326.72,65.179 -326.72,316.031 0,115.547 103.07,202.449 216.44,202.449 119.55,0 217.47,-87.891 217.47,-202.449 l -121.62,0 c 0,49.367 -41.23,85.918 -95.85,85.918 -54.63,0 -95.86,-36.551 -95.86,-85.918"
         style="fill:#ffffff;fill-opacity:1;fill-rule:nonzero;stroke:none"
         id="path4268"
         inkscape:connector-curvature="0" /><path
         d="m 3769.72,1325.8 49.25,0"
         style="fill:#ffffff;fill-opacity:1;fill-rule:nonzero;stroke:none"
         id="path4270"
         inkscape:connector-curvature="0" /><path
         d="m 1881.83,555.129 -65.52,-26.731"
         style="fill:#ffffff;fill-opacity:1;fill-rule:nonzero;stroke:none"
         id="path4272"
         inkscape:connector-curvature="0" /><path
         d="m 2765.52,789.66 -131.92,0 0,519.46 -320.39,-519.46 -142.55,0 461.08,741.05 123.48,0 0,-529.76 328.69,529.76 142.56,0 -460.95,-741.05"
         style="fill:#ffffff;fill-opacity:1;fill-rule:nonzero;stroke:none"
         id="path4274"
         inkscape:connector-curvature="0" /></g></g></svg>