<svg xmlns="http://www.w3.org/2000/svg" xmlns:xlink="http://www.w3.org/1999/xlink" width="15152.34" height="95.22" viewBox="0 0 15152.344 95.223025"><defs><path id="1" d="m95.12 266.21h-13.192v51.946l-32.04-51.946h-14.255l46.11 74.11h12.348v-52.976l32.869 52.976h14.256l-46.09-74.11"/><path id="2" d="m142.24 266.23h-13.192v51.946l-32.04-51.946h-14.255l46.11 74.11h12.348v-52.976l32.869 52.976h14.256l-46.09-74.11"/><path id="3" d="m-.357 215.03h-13.192v51.946l-32.04-51.946h-14.255l46.11 74.1h12.348v-52.976l32.869 52.976h14.256l-46.1-74.11"/><path id="4" d="m-47.48 215.02h-13.192v51.946l-32.04-51.946h-14.255l46.11 74.1h12.348v-52.976l32.869 52.976h14.256l-46.09-74.11"/><linearGradient id="0" x1="47.517" x2="859.93" gradientUnits="userSpaceOnUse"><stop/></linearGradient></defs><g transform="translate(359.19-114.97)" fill="url(#0)"><g transform="matrix(1.25 0 0-1.25-418.59 617.91)"><g transform="translate(11.879 59.963)"><g><use xlink:href="#1"/><path d="m142.24 266.23h-13.192v51.946l-32.04-51.946h-14.255l46.11 74.11h12.348v-52.976l32.869 52.976h14.256l-46.09-74.11"/><g transform="translate(236.85 51.21)"><path d="m-47.48 215.02h-13.192v51.946l-32.04-51.946h-14.255l46.11 74.1h12.348v-52.976l32.869 52.976h14.256l-46.09-74.11"/><use xlink:href="#3"/></g></g><g transform="translate(188.49.032)"><use xlink:href="#1"/><use xlink:href="#2"/><g transform="translate(236.85 51.21)"><path d="m-47.48 215.02h-13.192v51.946l-32.04-51.946h-14.255l46.11 74.1h12.348v-52.976l32.869 52.976h14.256l-46.09-74.11"/><use xlink:href="#3"/></g></g></g><g transform="translate(388.86 60.03)"><g><use xlink:href="#1"/><use xlink:href="#2"/><g transform="translate(236.85 51.21)"><use xlink:href="#4"/><use xlink:href="#3"/></g></g><g transform="translate(188.49.032)"><use xlink:href="#1"/><use xlink:href="#2"/><g transform="translate(236.85 51.21)"><use xlink:href="#4"/><use xlink:href="#3"/></g></g></g></g><g transform="matrix(1.25 0 0-1.25 523.87 617.74)"><g transform="translate(11.879 59.963)"><g><use xlink:href="#1"/><use xlink:href="#2"/><g transform="translate(236.85 51.21)"><use xlink:href="#4"/><use xlink:href="#3"/></g></g><g transform="translate(188.49.032)"><use xlink:href="#1"/><use xlink:href="#2"/><g transform="translate(236.85 51.21)"><use xlink:href="#4"/><use xlink:href="#3"/></g></g></g><g transform="translate(388.86 60.03)"><g><use xlink:href="#1"/><use xlink:href="#2"/><g transform="translate(236.85 51.21)"><use xlink:href="#4"/><use xlink:href="#3"/></g></g><g transform="translate(188.49.032)"><use xlink:href="#1"/><use xlink:href="#2"/><g transform="translate(236.85 51.21)"><use xlink:href="#4"/><use xlink:href="#3"/></g></g></g></g><g transform="translate(1884.91-.323)"><g transform="matrix(1.25 0 0-1.25-418.59 617.91)"><g transform="translate(11.879 59.963)"><g><use xlink:href="#1"/><use xlink:href="#2"/><g transform="translate(236.85 51.21)"><use xlink:href="#4"/><use xlink:href="#3"/></g></g><g transform="translate(188.49.032)"><use xlink:href="#1"/><use xlink:href="#2"/><g transform="translate(236.85 51.21)"><use xlink:href="#4"/><use xlink:href="#3"/></g></g></g><g transform="translate(388.86 60.03)"><g><use xlink:href="#1"/><use xlink:href="#2"/><g transform="translate(236.85 51.21)"><use xlink:href="#4"/><use xlink:href="#3"/></g></g><g transform="translate(188.49.032)"><use xlink:href="#1"/><use xlink:href="#2"/><g transform="translate(236.85 51.21)"><use xlink:href="#4"/><use xlink:href="#3"/></g></g></g></g><g transform="matrix(1.25 0 0-1.25 523.87 617.74)"><g transform="translate(11.879 59.963)"><g><use xlink:href="#1"/><use xlink:href="#2"/><g transform="translate(236.85 51.21)"><use xlink:href="#4"/><use xlink:href="#3"/></g></g><g transform="translate(188.49.032)"><use xlink:href="#1"/><use xlink:href="#2"/><g transform="translate(236.85 51.21)"><use xlink:href="#4"/><use xlink:href="#3"/></g></g></g><g transform="translate(388.86 60.03)"><g><use xlink:href="#1"/><use xlink:href="#2"/><g transform="translate(236.85 51.21)"><use xlink:href="#4"/><use xlink:href="#3"/></g></g><g transform="translate(188.49.032)"><use xlink:href="#1"/><use xlink:href="#2"/><g transform="translate(236.85 51.21)"><use xlink:href="#4"/><use xlink:href="#3"/></g></g></g></g></g><g transform="translate(3769.82-.65)"><g transform="matrix(1.25 0 0-1.25-418.59 617.91)"><g transform="translate(11.879 59.963)"><g><use xlink:href="#1"/><use xlink:href="#2"/><g transform="translate(236.85 51.21)"><use xlink:href="#4"/><use xlink:href="#3"/></g></g><g transform="translate(188.49.032)"><use xlink:href="#1"/><use xlink:href="#2"/><g transform="translate(236.85 51.21)"><use xlink:href="#4"/><use xlink:href="#3"/></g></g></g><g transform="translate(388.86 60.03)"><g><use xlink:href="#1"/><use xlink:href="#2"/><g transform="translate(236.85 51.21)"><use xlink:href="#4"/><use xlink:href="#3"/></g></g><g transform="translate(188.49.032)"><use xlink:href="#1"/><use xlink:href="#2"/><g transform="translate(236.85 51.21)"><use xlink:href="#4"/><use xlink:href="#3"/></g></g></g></g><g transform="matrix(1.25 0 0-1.25 523.87 617.74)"><g transform="translate(11.879 59.963)"><g><use xlink:href="#1"/><use xlink:href="#2"/><g transform="translate(236.85 51.21)"><use xlink:href="#4"/><use xlink:href="#3"/></g></g><g transform="translate(188.49.032)"><use xlink:href="#1"/><use xlink:href="#2"/><g transform="translate(236.85 51.21)"><use xlink:href="#4"/><use xlink:href="#3"/></g></g></g><g transform="translate(388.86 60.03)"><g><use xlink:href="#1"/><use xlink:href="#2"/><g transform="translate(236.85 51.21)"><use xlink:href="#4"/><use xlink:href="#3"/></g></g><g transform="translate(188.49.032)"><use xlink:href="#1"/><use xlink:href="#2"/><g transform="translate(236.85 51.21)"><use xlink:href="#4"/><use xlink:href="#3"/></g></g></g></g><g transform="translate(1884.91-.323)"><g transform="matrix(1.25 0 0-1.25-418.59 617.91)"><g transform="translate(11.879 59.963)"><g><use xlink:href="#1"/><use xlink:href="#2"/><g transform="translate(236.85 51.21)"><use xlink:href="#4"/><use xlink:href="#3"/></g></g><g transform="translate(188.49.032)"><use xlink:href="#1"/><use xlink:href="#2"/><g transform="translate(236.85 51.21)"><use xlink:href="#4"/><use xlink:href="#3"/></g></g></g><g transform="translate(388.86 60.03)"><g><use xlink:href="#1"/><use xlink:href="#2"/><g transform="translate(236.85 51.21)"><use xlink:href="#4"/><use xlink:href="#3"/></g></g><g transform="translate(188.49.032)"><use xlink:href="#1"/><use xlink:href="#2"/><g transform="translate(236.85 51.21)"><use xlink:href="#4"/><use xlink:href="#3"/></g></g></g></g><g transform="matrix(1.25 0 0-1.25 523.87 617.74)"><g transform="translate(11.879 59.963)"><g><use xlink:href="#1"/><use xlink:href="#2"/><g transform="translate(236.85 51.21)"><use xlink:href="#4"/><use xlink:href="#3"/></g></g><g transform="translate(188.49.032)"><use xlink:href="#1"/><use xlink:href="#2"/><g transform="translate(236.85 51.21)"><use xlink:href="#4"/><use xlink:href="#3"/></g></g></g><g transform="translate(388.86 60.03)"><g><use xlink:href="#1"/><use xlink:href="#2"/><g transform="translate(236.85 51.21)"><use xlink:href="#4"/><use xlink:href="#3"/></g></g><g transform="translate(188.49.032)"><use xlink:href="#1"/><use xlink:href="#2"/><g transform="translate(236.85 51.21)"><use xlink:href="#4"/><use xlink:href="#3"/></g></g></g></g></g></g><g transform="translate(7539.64-1.292)"><g transform="matrix(1.25 0 0-1.25-418.59 617.91)"><g transform="translate(11.879 59.963)"><g><use xlink:href="#1"/><use xlink:href="#2"/><g transform="translate(236.85 51.21)"><use xlink:href="#4"/><use xlink:href="#3"/></g></g><g transform="translate(188.49.032)"><use xlink:href="#1"/><use xlink:href="#2"/><g transform="translate(236.85 51.21)"><use xlink:href="#4"/><use xlink:href="#3"/></g></g></g><g transform="translate(388.86 60.03)"><g><use xlink:href="#1"/><use xlink:href="#2"/><g transform="translate(236.85 51.21)"><use xlink:href="#4"/><use xlink:href="#3"/></g></g><g transform="translate(188.49.032)"><use xlink:href="#1"/><use xlink:href="#2"/><g transform="translate(236.85 51.21)"><use xlink:href="#4"/><use xlink:href="#3"/></g></g></g></g><g transform="matrix(1.25 0 0-1.25 523.87 617.74)"><g transform="translate(11.879 59.963)"><g><use xlink:href="#1"/><use xlink:href="#2"/><g transform="translate(236.85 51.21)"><use xlink:href="#4"/><use xlink:href="#3"/></g></g><g transform="translate(188.49.032)"><use xlink:href="#1"/><use xlink:href="#2"/><g transform="translate(236.85 51.21)"><use xlink:href="#4"/><use xlink:href="#3"/></g></g></g><g transform="translate(388.86 60.03)"><g><use xlink:href="#1"/><use xlink:href="#2"/><g transform="translate(236.85 51.21)"><use xlink:href="#4"/><use xlink:href="#3"/></g></g><g transform="translate(188.49.032)"><use xlink:href="#1"/><use xlink:href="#2"/><g transform="translate(236.85 51.21)"><use xlink:href="#4"/><use xlink:href="#3"/></g></g></g></g><g transform="translate(1884.91-.323)"><g transform="matrix(1.25 0 0-1.25-418.59 617.91)"><g transform="translate(11.879 59.963)"><g><use xlink:href="#1"/><use xlink:href="#2"/><g transform="translate(236.85 51.21)"><use xlink:href="#4"/><use xlink:href="#3"/></g></g><g transform="translate(188.49.032)"><use xlink:href="#1"/><use xlink:href="#2"/><g transform="translate(236.85 51.21)"><use xlink:href="#4"/><use xlink:href="#3"/></g></g></g><g transform="translate(388.86 60.03)"><g><use xlink:href="#1"/><use xlink:href="#2"/><g transform="translate(236.85 51.21)"><use xlink:href="#4"/><use xlink:href="#3"/></g></g><g transform="translate(188.49.032)"><use xlink:href="#1"/><use xlink:href="#2"/><g transform="translate(236.85 51.21)"><use xlink:href="#4"/><use xlink:href="#3"/></g></g></g></g><g transform="matrix(1.25 0 0-1.25 523.87 617.74)"><g transform="translate(11.879 59.963)"><g><use xlink:href="#1"/><use xlink:href="#2"/><g transform="translate(236.85 51.21)"><use xlink:href="#4"/><use xlink:href="#3"/></g></g><g transform="translate(188.49.032)"><use xlink:href="#1"/><use xlink:href="#2"/><g transform="translate(236.85 51.21)"><use xlink:href="#4"/><use xlink:href="#3"/></g></g></g><g transform="translate(388.86 60.03)"><g><use xlink:href="#1"/><use xlink:href="#2"/><g transform="translate(236.85 51.21)"><use xlink:href="#4"/><use xlink:href="#3"/></g></g><g transform="translate(188.49.032)"><use xlink:href="#1"/><use xlink:href="#2"/><g transform="translate(236.85 51.21)"><use xlink:href="#4"/><use xlink:href="#3"/></g></g></g></g></g><g transform="translate(3769.82-.65)"><g transform="matrix(1.25 0 0-1.25-418.59 617.91)"><g transform="translate(11.879 59.963)"><g><use xlink:href="#1"/><use xlink:href="#2"/><g transform="translate(236.85 51.21)"><use xlink:href="#4"/><use xlink:href="#3"/></g></g><g transform="translate(188.49.032)"><use xlink:href="#1"/><use xlink:href="#2"/><g transform="translate(236.85 51.21)"><use xlink:href="#4"/><use xlink:href="#3"/></g></g></g><g transform="translate(388.86 60.03)"><g><use xlink:href="#1"/><use xlink:href="#2"/><g transform="translate(236.85 51.21)"><use xlink:href="#4"/><use xlink:href="#3"/></g></g><g transform="translate(188.49.032)"><use xlink:href="#1"/><use xlink:href="#2"/><g transform="translate(236.85 51.21)"><use xlink:href="#4"/><use xlink:href="#3"/></g></g></g></g><g transform="matrix(1.25 0 0-1.25 523.87 617.74)"><g transform="translate(11.879 59.963)"><g><use xlink:href="#1"/><use xlink:href="#2"/><g transform="translate(236.85 51.21)"><use xlink:href="#4"/><use xlink:href="#3"/></g></g><g transform="translate(188.49.032)"><use xlink:href="#1"/><use xlink:href="#2"/><g transform="translate(236.85 51.21)"><use xlink:href="#4"/><use xlink:href="#3"/></g></g></g><g transform="translate(388.86 60.03)"><g><use xlink:href="#1"/><use xlink:href="#2"/><g transform="translate(236.85 51.21)"><use xlink:href="#4"/><use xlink:href="#3"/></g></g><g transform="translate(188.49.032)"><use xlink:href="#1"/><use xlink:href="#2"/><g transform="translate(236.85 51.21)"><use xlink:href="#4"/><use xlink:href="#3"/></g></g></g></g><g transform="translate(1884.91-.323)"><g transform="matrix(1.25 0 0-1.25-418.59 617.91)"><g transform="translate(11.879 59.963)"><g><use xlink:href="#1"/><use xlink:href="#2"/><g transform="translate(236.85 51.21)"><use xlink:href="#4"/><use xlink:href="#3"/></g></g><g transform="translate(188.49.032)"><use xlink:href="#1"/><use xlink:href="#2"/><g transform="translate(236.85 51.21)"><use xlink:href="#4"/><use xlink:href="#3"/></g></g></g><g transform="translate(388.86 60.03)"><g><use xlink:href="#1"/><use xlink:href="#2"/><g transform="translate(236.85 51.21)"><use xlink:href="#4"/><use xlink:href="#3"/></g></g><g transform="translate(188.49.032)"><use xlink:href="#1"/><use xlink:href="#2"/><g transform="translate(236.85 51.21)"><use xlink:href="#4"/><use xlink:href="#3"/></g></g></g></g><g transform="matrix(1.25 0 0-1.25 523.87 617.74)"><g transform="translate(11.879 59.963)"><g><use xlink:href="#1"/><use xlink:href="#2"/><g transform="translate(236.85 51.21)"><use xlink:href="#4"/><use xlink:href="#3"/></g></g><g transform="translate(188.49.032)"><use xlink:href="#1"/><use xlink:href="#2"/><g transform="translate(236.85 51.21)"><use xlink:href="#4"/><use xlink:href="#3"/></g></g></g><g transform="translate(388.86 60.03)"><g><use xlink:href="#1"/><use xlink:href="#2"/><g transform="translate(236.85 51.21)"><use xlink:href="#4"/><use xlink:href="#3"/></g></g><g transform="translate(188.49.032)"><use xlink:href="#1"/><use xlink:href="#2"/><g transform="translate(236.85 51.21)"><use xlink:href="#4"/><use xlink:href="#3"/></g></g></g></g></g></g></g></g></svg>